# xmcd CD database file
#
# Track frame offsets:
#	150
#	18910
#	46840
#	69777
#	94220
#	118277
#	145875
#	165622
#	169505
#	188960
#	209317
#	216272
#
# Disc length: 3359 seconds
#
# Revision: 1
# Processed by: cddbd v1.5.2PL0 Copyright (c) Steve Scherf et al.
# Submitted via: CDex 1.70beta3
#
DISCID=a60d1d0c
DTITLE=WILD FLAG - WILD LAND
DYEAR=1993
DGENRE=J-Metal
TTITLE0=No! No! No!
TTITLE1=Wild Land
TTITLE2=Freedom
TTITLE3=Ace Of Spades
TTITLE4=Rock 'N' Roll Train
TTITLE5=I Am A Boy
TTITLE6=Play For The Night
TTITLE7=Plelude For An Angel
TTITLE8=Angel Of The Night
TTITLE9=No Way Out
TTITLE10=Turn The Light Off
TTITLE11=Love For You
EXTD=YEAR: 1993
EXTT0=
EXTT1=
EXTT2=
EXTT3=
EXTT4=
EXTT5=
EXTT6=
EXTT7=
EXTT8=
EXTT9=
EXTT10=
EXTT11=
PLAYORDER=
